PathFileType	4	(X/Y/Z)	66_2_106_p1_0-266.trc
DataRate	CameraRate	NumFrames	NumMarkers	Units	OrigDataRate	OrigDataStartFrame	OrigNumFrames
60.0	60.0	7	27	m	60.0	33	267
Frame#	Time	RHip			RKnee			RAnkle			RBigToe			RSmallToe			RHeel			LHip			LKnee			LAnkle			LBigToe			LSmallToe			LHeel			Neck			Head			Nose			RShoulder			RElbow			RWrist			RThumb			RIndex			RPinky			LShoulder			LElbow			LWrist			LThumb			LIndex			LPinky			
		X1	Y1	Z1	X2	Y2	Z2	X3	Y3	Z3	X4	Y4	Z4	X5	Y5	Z5	X6	Y6	Z6	X7	Y7	Z7	X8	Y8	Z8	X9	Y9	Z9	X10	Y10	Z10	X11	Y11	Z11	X12	Y12	Z12	X13	Y13	Z13	X14	Y14	Z14	X15	Y15	Z15	X16	Y16	Z16	X17	Y17	Z17	X18	Y18	Z18	X19	Y19	Z19	X20	Y20	Z20	X21	Y21	Z21	X22	Y22	Z22	X23	Y23	Z23	X24	Y24	Z24	X25	Y25	Z25	X26	Y26	Z26	X27	Y27	Z27	
33	0.55	0.5297052123141368	0.9460667958310266	0.7281995320638465	0.5162974748606216	1.1017588002309533	1.1974556618782102	0.5028935998092255	1.2231898599217432	1.6114720780073624	0.4876289432422872	0.9266079862638434	1.6493680135077264	0.5510913701201575	1.006004030599706	1.6535897236459043	0.49485507189584993	1.26085422406179	1.6477226574406274	0.33767838928265753	0.9760661934651281	0.7470433189545929	0.3196896895786085	1.0579241723818136	1.174516796811956	0.3077686598010976	1.183656602304799	1.583393771507605	0.3304093111538557	0.9429166929677887	1.640196813426388	0.27631101033653827	1.0083875577752923	1.6379336568932183	0.3263979574898031	1.3047637447659723	1.6388908146988401	0.43248664082558524	0.840295681082159	0.167010072965431	0.4377590829134951	0.7564461902183204	-0.084823704062508	0.40905371838588683	0.6479695754325371	0.06691967686758354	0.5646372823511618	0.8430449478100672	0.2596666946656355	0.5841904442804509	0.8359948841261517	0.5262839797864576	0.47627139157846066	0.8120413726934914	0.7336870514489444	0.39578711656108384	0.8249938236139013	0.8316711699205254	0.3946941946369385	0.8475316760849677	0.85195516684835	0.4376335460629832	0.8673147774336255	0.8680434889978756	0.3039549473724662	0.8661126051350618	0.25757229254843816	0.2536770169611764	0.8946080290133879	0.5215406653617434	0.35682154904596713	0.7926317094906083	0.7202664469597284	0.4351139801174694	0.7691151357825974	0.7977698850563899	0.4336168957804398	0.7699524266901228	0.820911432167147	0.38652035997285544	0.8253184879661932	0.8344607216448247
34	0.5666666666666667	0.5302220080587787	0.9453085463165254	0.7245439462119612	0.515338562976919	1.0987048482106478	1.192136931148501	0.5030920854937123	1.2235083803835687	1.6114957980942997	0.48765864048047747	0.9260700271567505	1.6492094704876292	0.5511388014692868	1.0059430285388236	1.6535967502414033	0.49520015717241284	1.2609922133342508	1.6479980799267782	0.3376773349785013	0.975804267837412	0.7468537830415183	0.3206075972661947	1.056786993730494	1.1699917473664994	0.30777280811084273	1.1835234898843088	1.583292541876558	0.3304998862587744	0.943156565232914	1.6403954585200162	0.28045885560907186	1.0095694302229212	1.6384505725937872	0.32662347940382025	1.3053032540429075	1.6391638767097667	0.43247226744944417	0.8402650609767137	0.16703031195124085	0.4376939730144878	0.7560011017276222	-0.0847756810325294	0.40912413440921275	0.6481473902981705	0.06700002272530906	0.560526895742042	0.8301017815276793	0.260434898319696	0.5846381729489282	0.8380634019609521	0.5300958333531783	0.4763625783586377	0.8122889804870868	0.7338406324959468	0.3913862562722382	0.8405114470492279	0.833607368740307	0.3944668492529249	0.8497060680576012	0.8517551805902972	0.43309165829023666	0.8838577421555062	0.8741203517524334	0.30395049737870733	0.8660649350225418	0.2575503620333429	0.25408135094043455	0.8942582231870749	0.5180396919166483	0.35685445115338393	0.7927892752861487	0.7203432570791537	0.43419029139765525	0.7697209141891186	0.7979869195555734	0.4293985069210132	0.7846811358854295	0.822883021245329	0.390329921505751	0.8278244599050969	0.834530879943652
35	0.5833333333333334	0.5297428060534471	0.9460863414073786	0.7282906408088151	0.5190879662062099	1.0806101187275703	1.1880551043367824	0.503033221183928	1.2234132895535454	1.6115260888771392	0.4863903294189116	0.9275929022466181	1.6537372840202043	0.5509401970423289	1.0056334528381359	1.6535773961595412	0.49648419322439835	1.2647101532986516	1.6536403613042063	0.337051717292316	0.9726187579660196	0.7424378882194081	0.319744226853901	1.057590649672352	1.1743681974437161	0.30783974928742924	1.1837543403322874	1.583478331216019	0.3305975851829003	0.9436405329873072	1.6407676414821495	0.2804577401786189	1.0101420363805604	1.6387908790216958	0.32328199100669236	1.290535568018529	1.6341492041694408	0.4325222510497947	0.8402305570056807	0.1670740245592612	0.4376550030387367	0.7559699295889276	-0.08120514289551173	0.4091021851144014	0.6479661899921704	0.06705180941827696	0.5605108029823778	0.8298675804587111	0.2604213444090137	0.5840584608723182	0.8357787968880245	0.5262115332983133	0.47635541784724605	0.8123131305244605	0.7338257646351666	0.3958719157394761	0.8273149693444248	0.8321991268433633	0.3949747419207267	0.8500189486296529	0.8522752608059457	0.4332021862518619	0.8845437623677295	0.8741988735526159	0.303948980012163	0.8659988153264353	0.25749762474029403	0.2538589613159814	0.894869752959277	0.5215670560586503	0.3568380092095507	0.7926702651456622	0.7203208284808287	0.433950888361732	0.7698418412250394	0.7980584828569789	0.42963953866781557	0.7851771116241377	0.8230543538937513	0.39087012244815994	0.8299424175687841	0.8386236508612962
36	0.6	0.5300285151990111	0.9453932034816396	0.7246879801790949	0.5150826203438411	1.1001418341268265	1.1881413877058564	0.5028095281856589	1.2250666158793964	1.6071781453081835	0.4823426160890553	0.9242458957855366	1.6482482367898628	0.5508016602952586	1.0065600990035235	1.653633503018809	0.495316671288373	1.2624067558001626	1.647970370654216	0.3380306879631161	0.975000541016999	0.7425645426475981	0.3214276415535511	1.0559495154535408	1.1655083084437525	0.3091439137321549	1.1806921458459898	1.577773082886906	0.33045966057687476	0.9434931852064607	1.6405589599436154	0.27562558468471704	1.0263168187529945	1.6447437330729993	0.3230850310476993	1.2892066389840744	1.6333719123130723	0.43244958720883525	0.8400496022703435	0.16715290696747795	0.4332498347429559	0.75450007922327	-0.08449413190892169	0.40909079372277746	0.6477984733408606	0.06715582993442402	0.5647011954357246	0.8426754425098564	0.25973235660077504	0.5876632880244801	0.8225724428803731	0.5296034694571877	0.47638777148314226	0.8125407777479101	0.733851829483589	0.39199814302177477	0.8423259373435319	0.8332282435930719	0.3979583654949871	0.8677781368449075	0.8536521470479845	0.4335634697812221	0.883648056142787	0.8700502500477814	0.3039500818761125	0.8662273607628346	0.25754986302482136	0.2544308057471219	0.8946600106769977	0.5181210793561374	0.3574315272688954	0.7946458023003616	0.7243869994735537	0.43082562047949047	0.7825257787389822	0.7995239124865263	0.42642297018240455	0.7972631724311348	0.828479204468843	0.3872051639937303	0.8279253731514927	0.8389412360174501
37	0.6166666666666667	0.5299641308826605	0.9461468902720923	0.7210129433953283	0.5150645177896733	1.1001191196382798	1.1881608981742877	0.4991146674434234	1.2058738834761804	1.6007482730137754	0.4865834116442026	0.924585308699306	1.6484029592393636	0.550252715645138	1.0062338154337185	1.6535937114686066	0.4963432920211087	1.2649456685053102	1.6534143611962244	0.337983471770505	0.9746244720459152	0.7425463131701521	0.3203698790788517	1.0578845324612705	1.16634954049223	0.3091997486205606	1.1808775544238928	1.5778453653010243	0.330511787576171	0.9433815366097579	1.64049755222972	0.27571980445633476	1.0262979989368346	1.6447040282778644	0.3235060857379126	1.2909859140933813	1.6341819321850684	0.43241538903244425	0.8400575569118194	0.16714927697955181	0.43311559458864407	0.7544682306181731	-0.08451282518739484	0.409065955926289	0.6479020179820311	0.06714689657838215	0.56463900451269	0.8427175446845526	0.2597380864030478	0.589136264592443	0.8390474245110809	0.5301019245137863	0.4763866884299796	0.8123391513109933	0.7338255704582223	0.39089346742472686	0.8418863275855495	0.8334652435903442	0.393237528972807	0.8510845111201466	0.8476118859279601	0.43285683981006845	0.8840634708472446	0.8739938044800597	0.303943930951254	0.8663322852585734	0.25753032401823567	0.25432120301516986	0.8954702374712341	0.5180570888028031	0.3569160165247299	0.7928045439056438	0.7203492398515937	0.43465391019479765	0.7693541581513796	0.7978680903031626	0.43002273146595194	0.7836092004479774	0.8265019109763468	0.3870198438726721	0.8281424994771737	0.8387423170372045
38	0.6333333333333333	0.530238149380599	0.9454655043989953	0.7247398176879583	0.5162162182377582	1.101655789286825	1.1973522632952307	0.502838095041287	1.2233313708809583	1.611395098387571	0.48673664243680337	0.9260262059143503	1.6489520761307417	0.5503834998324654	1.0065827095365822	1.6536426600675866	0.49526044485961357	1.2616698316680244	1.6479879931968	0.3374036213081028	0.9751488093381505	0.7469372506564171	0.32066992868145483	1.0569080953907306	1.1701162235977072	0.30906231066946727	1.181171190428091	1.578130882294767	0.3305707239141211	0.9437240524193233	1.6407379632311434	0.28049464425697646	1.010455889874029	1.6388401235112813	0.32816067609101573	1.2949778005426065	1.6357457323789282	0.4323634666720683	0.8399066677021814	0.16717215181209083	0.4330025722278646	0.7540400340810909	-0.08456937708920689	0.4090974891786567	0.6478795615327853	0.06720234773954996	0.5605429017880769	0.8298113355894148	0.2605154679251039	0.5847042912587357	0.8377531849438479	0.5301401890413022	0.47645689014266857	0.812138068157569	0.7338385874281604	0.3909638280502146	0.8411299096987307	0.8333730585565546	0.3933139182171334	0.8506978854506998	0.8476909894489068	0.4328522736258625	0.8837539436296267	0.8739952849160868	0.3039345087626182	0.8662464250438692	0.2575334444270893	0.2545340593023608	0.894837578838191	0.5181501975617866	0.3574392846488883	0.7949549163353955	0.7244124809734666	0.4349240078825578	0.7699928285340365	0.7979672361293689	0.4300124392792245	0.7843839146727022	0.8265889875539612	0.3871231016165454	0.828837603930924	0.8388963424426144
39	0.65	0.5302764877595082	0.9456530162358083	0.7247537143851255	0.5199645355032648	1.0837830122526761	1.193208615247634	0.5038508512193896	1.222262964448151	1.606240623378972	0.49136125408763576	0.9399971848456522	1.6543502584431335	0.5504721978712143	1.0069252894176313	1.653784523915536	0.49696880433829577	1.2592754918179576	1.6465023170248176	0.33739145216099986	0.975100609479316	0.7469410405955796	0.31979778213862387	1.0580693641675214	1.1745799098221268	0.3091663027108645	1.1810946425528157	1.5780755897008705	0.33070423801024296	0.9438402145902616	1.6408564381268134	0.28050630584807407	1.010572018291777	1.638891082152755	0.3231576987771677	1.2887521383434646	1.63315330700535	0.432470158718209	0.8415707940943451	0.17071742154961783	0.4324050728654434	0.7533663333923091	-0.08471638908832292	0.4055738019564412	0.6366223160935192	0.06871438410811354	0.5605376560611381	0.8295863895959865	0.26053297962446414	0.5846810041975788	0.8377667096745824	0.5301087012760948	0.4765202029092751	0.8121154699335509	0.7338916282979759	0.3913063148553364	0.8414059016211798	0.8336971425813214	0.39819919980205276	0.8667842194862021	0.8541713728463086	0.43769597400782445	0.9008840311565803	0.8807665870323024	0.30394834744197907	0.8660621435608953	0.2576010607615828	0.254448810126064	0.8947463481594409	0.5181984218556325	0.3574666004989762	0.7951308117617388	0.7244900243521837	0.4342312476277681	0.7715422252804532	0.7983268137852583	0.43001079985449653	0.7859467000686916	0.8268115155792606	0.38682480093650085	0.8296388394854397	0.838714813778578
